<svg xmlns="http://www.w3.org/2000/svg" xmlns:xlink="http://www.w3.org/1999/xlink" width="70" height="100" viewBox="0 0 70 100">
  <defs>
    <clipPath id="clip-Uzcard_logo_white">
      <rect width="70" height="100"/>
    </clipPath>
  </defs>
  <g id="Uzcard_logo_white" data-name="Uzcard logo – white" clip-path="url(#clip-Uzcard_logo_white)">
    <g id="Group_1648" data-name="Group 1648" transform="translate(-199.431 -250.729)">
      <g id="Group_13" data-name="Group 13" transform="translate(199.431 250.729)">
        <path id="Path_17" data-name="Path 17" d="M267.991,292.9c0,12.441-2.843,21.712-8.524,27.753s-14.459,9.06-26.293,9.06q-16.585,0-25.165-9.06t-8.579-27.328V252.465a1.741,1.741,0,0,1,1.735-1.736h20.048a1.741,1.741,0,0,1,1.736,1.736v41.753c0,4.973.92,8.8,2.792,11.5a10.134,10.134,0,0,0,15.994.24q2.745-3.8,2.736-11.2v-7.819h23.52Z" transform="translate(-199.431 -250.729)" fill="#fff" fill-rule="evenodd"/>
        <path id="Path_18" data-name="Path 18" d="M350.165,282.372h-21.7V252.547a1.823,1.823,0,0,1,1.818-1.818h3.248a18.448,18.448,0,0,0,18.448,18.435h.005v13.208Z" transform="translate(-283.423 -250.729)" fill="#fff" fill-rule="evenodd"/>
        <path id="Path_19" data-name="Path 19" d="M356.222,250.729h12.013a1.823,1.823,0,0,1,1.818,1.818v12.028a13.831,13.831,0,0,1-13.831-13.831Z" transform="translate(-301.492 -250.729)" fill="#f4821f" fill-rule="evenodd"/>
      </g>
      <path id="Path_20" data-name="Path 20" d="M203.369,517.032c2.654,0,3.936-1.478,3.936-3.648v-5.23h-1.9v5.178a2.046,2.046,0,1,1-4.093,0v-5.178h-1.883V513.4c0,2.144,1.281,3.635,3.936,3.635Zm15.4-.157v-1.634h-4.21l4.119-5.6v-1.491h-6.551v1.635h4.119l-4.119,5.583v1.5Zm8.874.157a4.017,4.017,0,0,0,3.648-2.145l-1.6-.771a2.339,2.339,0,0,1-2.053,1.268,2.867,2.867,0,0,1,0-5.727,2.364,2.364,0,0,1,2.053,1.268l1.6-.785a3.993,3.993,0,0,0-3.648-2.131,4.513,4.513,0,1,0,0,9.022Zm16.222-.157-3.36-8.721h-2.327l-3.374,8.721h2.118l.549-1.478h3.74l.536,1.478Zm-3.164-3.112h-2.72l1.36-3.753,1.36,3.753Zm15.7,5.3-3.2-5.507a2.5,2.5,0,0,0,1.909-2.589,2.716,2.716,0,0,0-2.929-2.811H248.1v8.721h1.857v-3.1h1.36l2.952,5.284Zm-4.495-6.919h-1.948v-2.353H251.9a1.183,1.183,0,1,1,0,2.353Zm11.463,4.733c2.733,0,4.629-1.726,4.629-4.354s-1.9-4.367-4.629-4.367h-3.439v8.721Zm0-1.634h-1.582v-5.452h1.582a2.552,2.552,0,0,1,2.733,2.732A2.611,2.611,0,0,1,263.364,515.241Z" transform="translate(-0.001 -167.474)" fill="#fff" fill-rule="evenodd"/>
      <path id="Path_21" data-name="Path 21" d="M396.265,504.962v.021a1.624,1.624,0,1,1-1.624-1.623h1.623Z" transform="translate(-126.013 -164.446)" fill="#fff" fill-rule="evenodd"/>
    </g>
  </g>
</svg>
