<svg xmlns="http://www.w3.org/2000/svg" width="70.825" height="100.86" viewBox="0 0 70.825 100.86">
    <path d="M-738.6,805.589h0l-2.13,0-2.952-5.284h-1.36v3.1H-746.9v-8.721h4.081c.071-.006.143-.008.215-.008a2.7,2.7,0,0,1,1.881.756,2.717,2.717,0,0,1,.833,2.063,2.5,2.5,0,0,1-1.909,2.589l3.2,5.506Zm-4.5-6.919a1.189,1.189,0,0,0,.125.007,1.176,1.176,0,0,0,1-.557,1.191,1.191,0,0,0,0-1.254,1.177,1.177,0,0,0-1-.556,1.188,1.188,0,0,0-.125.007h-1.941v2.353Zm-48.535,4.891h0c-2.5,0-3.936-1.325-3.936-3.635V794.68h1.884v5.178a2.049,2.049,0,0,0,2.047,2.047,2.049,2.049,0,0,0,2.047-2.047V794.68h1.9v5.23c0,2.318-1.435,3.648-3.937,3.648l0,0Zm24.141,0a4.53,4.53,0,0,1-3.884-2.218,4.516,4.516,0,0,1,0-4.591,4.529,4.529,0,0,1,3.884-2.217l.136,0,.116,0a3.982,3.982,0,0,1,3.532,2.132l-1.6.786a2.363,2.363,0,0,0-2.053-1.268,2.864,2.864,0,0,0-2.725,2.863,2.865,2.865,0,0,0,2.725,2.864,2.334,2.334,0,0,0,2.053-1.268l1.6.771a4.008,4.008,0,0,1-3.553,2.146h-.231Zm35.863-.156h-3.439v-8.721h3.439c2.769,0,4.629,1.755,4.629,4.367S-728.86,803.4-731.629,803.4Zm0-1.636h0q.064,0,.128,0a2.6,2.6,0,0,0,1.838-.758,2.62,2.62,0,0,0,.769-1.964,2.55,2.55,0,0,0-.742-1.992,2.533,2.533,0,0,0-1.8-.747c-.063,0-.127,0-.189.007h-1.582v5.451h1.582Zm-26.445,1.635h-2.118l3.374-8.721h2.327l3.36,8.72h-2.118l-.536-1.478h-3.74l-.549,1.478Zm2.419-6.866-1.36,3.753h2.72l-1.36-3.753Zm-20.572,6.865h0l-6.641-.007v-1.5l4.119-5.583h-4.119v-1.635h6.551v1.491l-4.118,5.6h4.209V803.4Zm49.861-7.24h0a1.625,1.625,0,0,1-1.623-1.624,1.625,1.625,0,0,1,1.623-1.624h1.624v1.623A1.626,1.626,0,0,1-726.368,796.162Zm-35.455-12.449a43.179,43.179,0,0,1-14.584-2.265,26.948,26.948,0,0,1-10.581-6.8,28.875,28.875,0,0,1-6.435-11.362,53.694,53.694,0,0,1-2.144-15.966v-40.86a1.745,1.745,0,0,1,1.734-1.736h20.048a1.745,1.745,0,0,1,1.736,1.736v41.753c0,4.959.939,8.828,2.792,11.5a10.07,10.07,0,0,0,7.939,4.03h.152a10.085,10.085,0,0,0,7.9-3.791c1.822-2.521,2.742-6.29,2.736-11.2v-7.819h23.521V746.9a55.919,55.919,0,0,1-2.132,16.276,28.9,28.9,0,0,1-6.393,11.476,26.467,26.467,0,0,1-10.839,6.8A47.736,47.736,0,0,1-761.823,783.713ZM-727,736.372h-23.52V706.547a1.828,1.828,0,0,1,1.818-1.818h3.248a18.472,18.472,0,0,0,18.448,18.436H-727v13.207Zm0-17.8h0a13.74,13.74,0,0,1-9.779-4.051,13.741,13.741,0,0,1-4.051-9.78v-.015h12.013A1.827,1.827,0,0,1-727,706.547v12.028Z" transform="translate(795.569 -704.729)" fill="#fff"/></svg>
